{
  "accessors": [
    {
      "bufferView": 2,
      "componentType": 5126,
      "count": 1146,
      "max": [
        1.119446873664856,
        0.9394896626472473,
        1.0826507806777954
      ],
      "min": [
        -1.119446873664856,
        -0.30900460481643677,
        -0.6363006234169006
      ],
      "type": "VEC3"
    },
    {
      "bufferView": 2,
      "byteOffset": 13752,
      "componentType": 5126,
      "count": 1146,
      "max": [
        0.9994717836380005,
        0.9992198944091797,
        0.9948567152023315
      ],
      "min": [
        -0.9994717836380005,
        -0.9994323253631592,
        -0.33955150842666626
      ],
      "type": "VEC3"
    },
    {
      "bufferView": 3,
      "componentType": 5126,
      "count": 1146,
      "max": [
        0.9999927282333374,
        0.04662385210394859,
        0.8126344680786133,
        1.0
      ],
      "min": [
        -0.9999927282333374,
        -0.99826979637146,
        -0.9389349222183228,
        1.0
      ],
      "type": "VEC4"
    },
    {
      "bufferView": 1,
      "componentType": 5126,
      "count": 1146,
      "max": [
        0.999836802482605,
        0.9595133662223816
      ],
      "min": [
        0.00016326438344549388,
        0.00016326438344549388
      ],
      "type": "VEC2"
    },
    {
      "bufferView": 0,
      "componentType": 5125,
      "count": 6144,
      "type": "SCALAR"
    },
    {
      "bufferView": 2,
      "byteOffset": 27504,
      "componentType": 5126,
      "count": 2044,
      "max": [
        2.3400001525878906,
        3.0201897621154785,
        2.4867093563079834
      ],
      "min": [
        -2.3400001525878906,
        -0.6299999952316284,
        -2.3400001525878906
      ],
      "type": "VEC3"
    },
    {
      "bufferView": 2,
      "byteOffset": 52032,
      "componentType": 5126,
      "count": 2044,
      "max": [
        1.0,
        0.9999942779541016,
        1.0
      ],
      "min": [
        -1.0,
        -0.9999942779541016,
        -1.0
      ],
      "type": "VEC3"
    },
    {
      "bufferView": 3,
      "byteOffset": 18336,
      "componentType": 5126,
      "count": 2044,
      "max": [
        0.997137188911438,
        1.0,
        0.9999937415122986,
        1.0
      ],
      "min": [
        -0.9971364736557007,
        -1.0,
        -0.6659574508666992,
        1.0
      ],
      "type": "VEC4"
    },
    {
      "bufferView": 1,
      "byteOffset": 9168,
      "componentType": 5126,
      "count": 2044,
      "max": [
        0.9998166561126709,
        0.8458001017570496
      ],
      "min": [
        0.00018338114023208618,
        0.00018329918384552002
      ],
      "type": "VEC2"
    },
    {
      "bufferView": 0,
      "byteOffset": 24576,
      "componentType": 5125,
      "count": 10872,
      "type": "SCALAR"
    }
  ],
  "asset": {
    "extras": {
      "author": "raholder0909 (https://sketchfab.com/raholder0909)",
      "license": "CC-BY-4.0 (http://creativecommons.org/licenses/by/4.0/)",
      "source": "https://sketchfab.com/3d-models/duck-floaty-1467f79dc22e46c49e68a688865e9f70",
      "title": "duck floaty"
    },
    "generator": "Sketchfab-12.67.0",
    "version": "2.0"
  },
  "bufferViews": [
    {
      "buffer": 0,
      "byteLength": 68064,
      "name": "floatBufferViews",
      "target": 34963
    },
    {
      "buffer": 0,
      "byteLength": 25520,
      "byteOffset": 68064,
      "byteStride": 8,
      "name": "floatBufferViews",
      "target": 34962
    },
    {
      "buffer": 0,
      "byteLength": 76560,
      "byteOffset": 93584,
      "byteStride": 12,
      "name": "floatBufferViews",
      "target": 34962
    },
    {
      "buffer": 0,
      "byteLength": 51040,
      "byteOffset": 170144,
      "byteStride": 16,
      "name": "floatBufferViews",
      "target": 34962
    }
  ],
  "buffers": [
    {
      "byteLength": 221184,
      "uri": "scene.bin"
    }
  ],
  "images": [
    {
      "uri": "textures/bill_normal.png"
    },
    {
      "uri": "textures/duck_body_baseColor.png"
    },
    {
      "uri": "textures/duck_body_normal.png"
    }
  ],
  "materials": [
    {
      "doubleSided": true,
      "name": "bill",
      "normalTexture": {
        "index": 0
      },
      "pbrMetallicRoughness": {
        "baseColorFactor": [
          0.8,
          0.225638,
          0.0592178,
          1.0
        ],
        "metallicFactor": 0.0,
        "roughnessFactor": 0.08664013259051788
      }
    },
    {
      "doubleSided": true,
      "name": "duck_body",
      "normalTexture": {
        "index": 2
      },
      "pbrMetallicRoughness": {
        "baseColorTexture": {
          "index": 1
        },
        "metallicFactor": 0.0,
        "roughnessFactor": 0.220721
      }
    }
  ],
  "meshes": [
    {
      "name": "Object_0",
      "primitives": [
        {
          "attributes": {
            "NORMAL": 1,
            "POSITION": 0,
            "TANGENT": 2,
            "TEXCOORD_0": 3
          },
          "indices": 4,
          "material": 0,
          "mode": 4
        }
      ]
    },
    {
      "name": "Object_1",
      "primitives": [
        {
          "attributes": {
            "NORMAL": 6,
            "POSITION": 5,
            "TANGENT": 7,
            "TEXCOORD_0": 8
          },
          "indices": 9,
          "material": 1,
          "mode": 4
        }
      ]
    }
  ],
  "nodes": [
    {
      "children": [
        1
      ],
      "matrix": [
        1.0,
        0.0,
        0.0,
        0.0,
        0.0,
        2.220446049250313e-16,
        -1.0,
        0.0,
        0.0,
        1.0,
        2.220446049250313e-16,
        0.0,
        0.0,
        0.0,
        0.0,
        1.0
      ],
      "name": "Sketchfab_model"
    },
    {
      "children": [
        2
      ],
      "name": "root"
    },
    {
      "children": [
        3,
        5
      ],
      "matrix": [
        1.0,
        0.0,
        0.0,
        0.0,
        0.0,
        2.220446049250313e-16,
        1.0,
        0.0,
        0.0,
        -1.0,
        2.220446049250313e-16,
        0.0,
        0.0,
        0.0,
        0.0,
        1.0
      ],
      "name": "GLTF_SceneRootNode"
    },
    {
      "children": [
        4
      ],
      "matrix": [
        0.4280613660812378,
        0.0,
        0.0,
        0.0,
        0.0,
        0.4280613660812378,
        0.0,
        0.0,
        0.0,
        0.0,
        0.4280613660812378,
        0.0,
        0.0,
        1.5900970697402954,
        2.5353102684020996,
        1.0
      ],
      "name": "bill simple_0"
    },
    {
      "mesh": 0,
      "name": "Object_4"
    },
    {
      "children": [
        6
      ],
      "matrix": [
        1.0,
        0.0,
        0.0,
        0.0,
        0.0,
        1.0,
        0.0,
        0.0,
        0.0,
        0.0,
        1.0,
        0.0,
        0.0,
        -0.031005382537841797,
        0.0001773834228515625,
        1.0
      ],
      "name": "simple_1"
    },
    {
      "mesh": 1,
      "name": "Object_6"
    }
  ],
  "samplers": [
    {
      "magFilter": 9729,
      "minFilter": 9987,
      "wrapS": 10497,
      "wrapT": 10497
    }
  ],
  "scene": 0,
  "scenes": [
    {
      "name": "Sketchfab_Scene",
      "nodes": [
        0
      ]
    }
  ],
  "textures": [
    {
      "sampler": 0,
      "source": 0
    },
    {
      "sampler": 0,
      "source": 1
    },
    {
      "sampler": 0,
      "source": 2
    }
  ]
}
