{
  "accessors": [
    {
      "bufferView": 2,
      "componentType": 5126,
      "count": 6024,
      "max": [
        0.5,
        0.5,
        0.49157699942588806
      ],
      "min": [
        -0.5,
        -0.5,
        -0.5
      ],
      "type": "VEC3"
    },
    {
      "bufferView": 2,
      "byteOffset": 72288,
      "componentType": 5126,
      "count": 6024,
      "max": [
        0.9996253848075867,
        0.9995216727256775,
        0.9999997019767761
      ],
      "min": [
        -0.9997372031211853,
        -0.9995396733283997,
        -0.9642924070358276
      ],
      "type": "VEC3"
    },
    {
      "bufferView": 1,
      "componentType": 5126,
      "count": 6024,
      "max": [
        0.9964640140533447,
        0.981971025466919
      ],
      "min": [
        0.011492660269141197,
        0.004945576190948486
      ],
      "type": "VEC2"
    },
    {
      "bufferView": 0,
      "componentType": 5125,
      "count": 33990,
      "type": "SCALAR"
    },
    {
      "bufferView": 2,
      "byteOffset": 144576,
      "componentType": 5126,
      "count": 1003,
      "max": [
        0.43643099069595337,
        0.4325549900531769,
        0.5
      ],
      "min": [
        -0.4343709945678711,
        -0.4342789947986603,
        0.38339099287986755
      ],
      "type": "VEC3"
    },
    {
      "bufferView": 2,
      "byteOffset": 156612,
      "componentType": 5126,
      "count": 1003,
      "max": [
        0.8123728036880493,
        0.8281856775283813,
        0.9999831914901733
      ],
      "min": [
        -0.6528713703155518,
        -0.6203603148460388,
        0.4015304446220398
      ],
      "type": "VEC3"
    },
    {
      "bufferView": 1,
      "byteOffset": 48192,
      "componentType": 5126,
      "count": 1003,
      "max": [
        0.9924039840698242,
        0.9999309778213501
      ],
      "min": [
        0.007596075069159269,
        0.0
      ],
      "type": "VEC2"
    },
    {
      "bufferView": 0,
      "byteOffset": 135960,
      "componentType": 5125,
      "count": 5583,
      "type": "SCALAR"
    },
    {
      "bufferView": 2,
      "byteOffset": 168648,
      "componentType": 5126,
      "count": 27303,
      "max": [
        0.5,
        0.5,
        0.5
      ],
      "min": [
        -0.5,
        -0.5,
        -0.5
      ],
      "type": "VEC3"
    },
    {
      "bufferView": 2,
      "byteOffset": 496284,
      "componentType": 5126,
      "count": 27303,
      "max": [
        0.999062716960907,
        0.9989804029464722,
        0.9999969005584717
      ],
      "min": [
        -0.9999927878379822,
        -0.9975529909133911,
        -0.8273258805274963
      ],
      "type": "VEC3"
    },
    {
      "bufferView": 1,
      "byteOffset": 56216,
      "componentType": 5126,
      "count": 27303,
      "max": [
        0.99823397397995,
        0.9970700144767761
      ],
      "min": [
        0.0017310379771515727,
        0.00173002399969846
      ],
      "type": "VEC2"
    },
    {
      "bufferView": 0,
      "byteOffset": 158292,
      "componentType": 5125,
      "count": 27303,
      "type": "SCALAR"
    },
    {
      "bufferView": 2,
      "byteOffset": 823920,
      "componentType": 5126,
      "count": 8337,
      "max": [
        0.5,
        0.5,
        0.5
      ],
      "min": [
        -0.5,
        -0.5,
        -0.5
      ],
      "type": "VEC3"
    },
    {
      "bufferView": 2,
      "byteOffset": 923964,
      "componentType": 5126,
      "count": 8337,
      "max": [
        0.9962491989135742,
        0.9988191723823547,
        0.8430259227752686
      ],
      "min": [
        -0.9102596044540405,
        -0.817140519618988,
        -0.9998872876167297
      ],
      "type": "VEC3"
    },
    {
      "bufferView": 1,
      "byteOffset": 274640,
      "componentType": 5126,
      "count": 8337,
      "max": [
        0.9981970191001892,
        0.9979689717292786
      ],
      "min": [
        0.0016810890519991517,
        0.0008724029758013785
      ],
      "type": "VEC2"
    },
    {
      "bufferView": 0,
      "byteOffset": 267504,
      "componentType": 5125,
      "count": 8337,
      "type": "SCALAR"
    },
    {
      "bufferView": 2,
      "byteOffset": 1024008,
      "componentType": 5126,
      "count": 9597,
      "max": [
        0.5,
        0.5,
        0.5
      ],
      "min": [
        -0.5,
        -0.5,
        -0.5
      ],
      "type": "VEC3"
    },
    {
      "bufferView": 2,
      "byteOffset": 1139172,
      "componentType": 5126,
      "count": 9597,
      "max": [
        0.9999957084655762,
        0.9995608925819397,
        0.9694766998291016
      ],
      "min": [
        -0.9999333024024963,
        -0.9991925954818726,
        -0.9746588468551636
      ],
      "type": "VEC3"
    },
    {
      "bufferView": 1,
      "byteOffset": 341336,
      "componentType": 5126,
      "count": 9597,
      "max": [
        0.9979109764099121,
        0.9905400276184082
      ],
      "min": [
        0.009314595721662045,
        0.0007973909960128367
      ],
      "type": "VEC2"
    },
    {
      "bufferView": 0,
      "byteOffset": 300852,
      "componentType": 5125,
      "count": 9597,
      "type": "SCALAR"
    },
    {
      "bufferView": 2,
      "byteOffset": 1254336,
      "componentType": 5126,
      "count": 13833,
      "max": [
        0.5,
        0.5,
        0.5
      ],
      "min": [
        -0.5,
        -0.5,
        -0.5
      ],
      "type": "VEC3"
    },
    {
      "bufferView": 2,
      "byteOffset": 1420332,
      "componentType": 5126,
      "count": 13833,
      "max": [
        0.9963850975036621,
        0.9982408881187439,
        0.5519431233406067
      ],
      "min": [
        -0.7805485129356384,
        -0.9358466863632202,
        -0.9999904036521912
      ],
      "type": "VEC3"
    },
    {
      "bufferView": 1,
      "byteOffset": 418112,
      "componentType": 5126,
      "count": 13833,
      "max": [
        0.9961680173873901,
        0.9981639981269836
      ],
      "min": [
        0.0017533890204504132,
        0.001737833023071289
      ],
      "type": "VEC2"
    },
    {
      "bufferView": 0,
      "byteOffset": 339240,
      "componentType": 5125,
      "count": 13833,
      "type": "SCALAR"
    },
    {
      "bufferView": 2,
      "byteOffset": 1586328,
      "componentType": 5126,
      "count": 20439,
      "max": [
        0.5,
        0.5,
        0.5
      ],
      "min": [
        -0.5,
        -0.5,
        -0.5
      ],
      "type": "VEC3"
    },
    {
      "bufferView": 2,
      "byteOffset": 1831596,
      "componentType": 5126,
      "count": 20439,
      "max": [
        0.9949347972869873,
        0.9620171189308167,
        0.9999895095825195
      ],
      "min": [
        -0.9984291791915894,
        -0.9986736178398132,
        -0.9790148735046387
      ],
      "type": "VEC3"
    },
    {
      "bufferView": 1,
      "byteOffset": 528776,
      "componentType": 5126,
      "count": 20439,
      "max": [
        0.996167004108429,
        0.9981549978256226
      ],
      "min": [
        0.0017391439760103822,
        0.0017514219507575035
      ],
      "type": "VEC2"
    },
    {
      "bufferView": 0,
      "byteOffset": 394572,
      "componentType": 5125,
      "count": 20439,
      "type": "SCALAR"
    }
  ],
  "asset": {
    "extras": {
      "author": "₦₥₵ ฿₵ (https://sketchfab.com/nmcbc)",
      "license": "CC-BY-4.0 (http://creativecommons.org/licenses/by/4.0/)",
      "source": "https://sketchfab.com/3d-models/pot-3d-model-6654da11fe0449a2b845b26e056f9964",
      "title": "Pot 3D Model"
    },
    "generator": "Sketchfab-15.80.0",
    "version": "2.0"
  },
  "bufferViews": [
    {
      "buffer": 0,
      "byteLength": 476328,
      "name": "floatBufferViews",
      "target": 34963
    },
    {
      "buffer": 0,
      "byteLength": 692288,
      "byteOffset": 476328,
      "byteStride": 8,
      "name": "floatBufferViews",
      "target": 34962
    },
    {
      "buffer": 0,
      "byteLength": 2076864,
      "byteOffset": 1168616,
      "byteStride": 12,
      "name": "floatBufferViews",
      "target": 34962
    }
  ],
  "buffers": [
    {
      "byteLength": 3245480,
      "uri": "scene.bin"
    }
  ],
  "images": [
    {
      "uri": "textures/Material7-material_baseColor.png"
    },
    {
      "uri": "textures/Material6-material_baseColor.png"
    },
    {
      "uri": "textures/Material5-material_baseColor.png"
    },
    {
      "uri": "textures/Material2-material_baseColor.png"
    },
    {
      "uri": "textures/Material0-material_baseColor.png"
    },
    {
      "uri": "textures/Material1-material_baseColor.png"
    }
  ],
  "materials": [
    {
      "doubleSided": true,
      "name": "Material7-material",
      "pbrMetallicRoughness": {
        "baseColorTexture": {
          "index": 0
        },
        "metallicFactor": 0.0,
        "roughnessFactor": 0.4
      }
    },
    {
      "doubleSided": true,
      "name": "Material6-material",
      "pbrMetallicRoughness": {
        "baseColorTexture": {
          "index": 1
        },
        "metallicFactor": 0.0,
        "roughnessFactor": 0.6
      }
    },
    {
      "doubleSided": true,
      "name": "Material5-material",
      "pbrMetallicRoughness": {
        "baseColorTexture": {
          "index": 2
        },
        "metallicFactor": 0.0,
        "roughnessFactor": 0.4
      }
    },
    {
      "doubleSided": true,
      "name": "Material3-material",
      "pbrMetallicRoughness": {
        "baseColorTexture": {
          "index": 0
        },
        "metallicFactor": 0.0,
        "roughnessFactor": 0.6
      }
    },
    {
      "doubleSided": true,
      "name": "Material2-material",
      "pbrMetallicRoughness": {
        "baseColorTexture": {
          "index": 3
        },
        "metallicFactor": 0.0,
        "roughnessFactor": 0.4
      }
    },
    {
      "doubleSided": true,
      "name": "Material0-material",
      "pbrMetallicRoughness": {
        "baseColorTexture": {
          "index": 4
        },
        "metallicFactor": 0.0,
        "roughnessFactor": 0.6
      }
    },
    {
      "doubleSided": true,
      "name": "Material1-material",
      "pbrMetallicRoughness": {
        "baseColorTexture": {
          "index": 5
        },
        "metallicFactor": 0.0,
        "roughnessFactor": 0.6
      }
    }
  ],
  "meshes": [
    {
      "name": "Material0-material-material",
      "primitives": [
        {
          "attributes": {
            "NORMAL": 1,
            "POSITION": 0,
            "TEXCOORD_0": 2
          },
          "indices": 3,
          "material": 5,
          "mode": 4
        }
      ]
    },
    {
      "name": "Material1-material-material",
      "primitives": [
        {
          "attributes": {
            "NORMAL": 5,
            "POSITION": 4,
            "TEXCOORD_0": 6
          },
          "indices": 7,
          "material": 6,
          "mode": 4
        }
      ]
    },
    {
      "name": "Material2-material-material",
      "primitives": [
        {
          "attributes": {
            "NORMAL": 9,
            "POSITION": 8,
            "TEXCOORD_0": 10
          },
          "indices": 11,
          "material": 4,
          "mode": 4
        }
      ]
    },
    {
      "name": "Material3-material-material",
      "primitives": [
        {
          "attributes": {
            "NORMAL": 13,
            "POSITION": 12,
            "TEXCOORD_0": 14
          },
          "indices": 15,
          "material": 3,
          "mode": 4
        }
      ]
    },
    {
      "name": "Material5-material-material",
      "primitives": [
        {
          "attributes": {
            "NORMAL": 17,
            "POSITION": 16,
            "TEXCOORD_0": 18
          },
          "indices": 19,
          "material": 2,
          "mode": 4
        }
      ]
    },
    {
      "name": "Material6-material-material",
      "primitives": [
        {
          "attributes": {
            "NORMAL": 21,
            "POSITION": 20,
            "TEXCOORD_0": 22
          },
          "indices": 23,
          "material": 1,
          "mode": 4
        }
      ]
    },
    {
      "name": "Material7-material-material",
      "primitives": [
        {
          "attributes": {
            "NORMAL": 25,
            "POSITION": 24,
            "TEXCOORD_0": 26
          },
          "indices": 27,
          "material": 0,
          "mode": 4
        }
      ]
    }
  ],
  "nodes": [
    {
      "children": [
        1
      ],
      "matrix": [
        1.0,
        0.0,
        0.0,
        0.0,
        0.0,
        2.220446049250313e-16,
        -1.0,
        0.0,
        0.0,
        1.0,
        2.220446049250313e-16,
        0.0,
        0.0,
        0.0,
        0.0,
        1.0
      ],
      "name": "Sketchfab_model"
    },
    {
      "children": [
        2,
        5,
        7,
        9,
        11,
        13
      ],
      "name": "Collada visual scene group"
    },
    {
      "children": [
        3,
        4
      ],
      "matrix": [
        -0.001189241,
        0.9597576,
        0.0,
        0.0,
        -0.9597576,
        -0.001189241,
        0.0,
        0.0,
        0.0,
        0.0,
        0.688025,
        0.0,
        0.009990618,
        0.2000977,
        0.3597486,
        1.0
      ],
      "name": "prim0"
    },
    {
      "mesh": 0,
      "name": "Material0-material-material"
    },
    {
      "mesh": 1,
      "name": "Material1-material-material"
    },
    {
      "children": [
        6
      ],
      "matrix": [
        -0.002686447,
        2.166386,
        0.0,
        0.0,
        -1.801441,
        -0.002233894,
        0.0,
        0.0,
        0.0,
        0.0,
        1.77762,
        0.0,
        0.1075471,
        -0.2564374,
        2.47274,
        1.0
      ],
      "name": "prim1"
    },
    {
      "mesh": 2,
      "name": "Material2-material-material"
    },
    {
      "children": [
        8
      ],
      "matrix": [
        -0.00268232,
        2.167642,
        0.0,
        0.0,
        -1.802697,
        -0.002230724,
        0.0,
        0.0,
        0.0,
        0.0,
        1.77367,
        0.0,
        0.1078667,
        -0.2555433,
        2.46146,
        1.0
      ],
      "name": "prim2"
    },
    {
      "mesh": 3,
      "name": "Material3-material-material"
    },
    {
      "children": [
        10
      ],
      "matrix": [
        -0.00165044,
        1.332474,
        0.0,
        0.0,
        -1.592584,
        -0.001972621,
        0.0,
        0.0,
        0.0,
        0.0,
        2.54966,
        0.0,
        0.4453063,
        -0.09219256,
        1.877048,
        1.0
      ],
      "name": "prim4"
    },
    {
      "mesh": 4,
      "name": "Material5-material-material"
    },
    {
      "children": [
        12
      ],
      "matrix": [
        -0.002313068,
        1.866005,
        0.0,
        0.0,
        -2.07256,
        -0.002569109,
        0.0,
        0.0,
        0.0,
        0.0,
        2.22271,
        0.0,
        0.6658591,
        0.1323618,
        2.37216,
        1.0
      ],
      "name": "prim5"
    },
    {
      "mesh": 5,
      "name": "Material6-material-material"
    },
    {
      "children": [
        14
      ],
      "matrix": [
        -0.002310731,
        1.865555,
        0.0,
        0.0,
        -2.07126,
        -0.002565522,
        0.0,
        0.0,
        0.0,
        0.0,
        2.22353,
        0.0,
        0.6661628,
        0.132137,
        2.370548,
        1.0
      ],
      "name": "prim6"
    },
    {
      "mesh": 6,
      "name": "Material7-material-material"
    }
  ],
  "samplers": [
    {
      "magFilter": 9729,
      "minFilter": 9987,
      "wrapS": 10497,
      "wrapT": 10497
    }
  ],
  "scene": 0,
  "scenes": [
    {
      "name": "Sketchfab_Scene",
      "nodes": [
        0
      ]
    }
  ],
  "textures": [
    {
      "sampler": 0,
      "source": 0
    },
    {
      "sampler": 0,
      "source": 1
    },
    {
      "sampler": 0,
      "source": 2
    },
    {
      "sampler": 0,
      "source": 3
    },
    {
      "sampler": 0,
      "source": 4
    },
    {
      "sampler": 0,
      "source": 5
    }
  ]
}
