{
  "accessors": [
    {
      "bufferView": 2,
      "componentType": 5126,
      "count": 51483,
      "max": [
        2.891326904296875,
        2.4228389263153076,
        4.656117916107178
      ],
      "min": [
        -2.4197800159454346,
        -3.0475919246673584,
        0.12039200216531754
      ],
      "type": "VEC3"
    },
    {
      "bufferView": 2,
      "byteOffset": 617796,
      "componentType": 5126,
      "count": 51483,
      "max": [
        0.999836266040802,
        0.9998220801353455,
        0.9999854564666748
      ],
      "min": [
        -0.9997947812080383,
        -0.9999269247055054,
        -0.9999651908874512
      ],
      "type": "VEC3"
    },
    {
      "bufferView": 3,
      "componentType": 5126,
      "count": 51483,
      "max": [
        0.9999909996986389,
        0.9998433589935303,
        0.9999982118606567,
        1.0
      ],
      "min": [
        -0.9998804330825806,
        -0.9998777508735657,
        -0.9999642372131348,
        -1.0
      ],
      "type": "VEC4"
    },
    {
      "bufferView": 1,
      "componentType": 5126,
      "count": 51483,
      "max": [
        0.9978770017623901,
        0.9999799728393555
      ],
      "min": [
        1.4999999621068127e-05,
        2.499999936844688e-05
      ],
      "type": "VEC2"
    },
    {
      "bufferView": 0,
      "componentType": 5125,
      "count": 272079,
      "type": "SCALAR"
    }
  ],
  "asset": {
    "extras": {
      "author": "Lassi Kaukonen (https://sketchfab.com/thesidekick)",
      "license": "CC-BY-4.0 (http://creativecommons.org/licenses/by/4.0/)",
      "source": "https://sketchfab.com/3d-models/chrystanthemum-flower-a026f13cdd6c4e7f9f89c82731d7bfa3",
      "title": "Chrystanthemum flower"
    },
    "generator": "Sketchfab-12.68.0",
    "version": "2.0"
  },
  "bufferViews": [
    {
      "buffer": 0,
      "byteLength": 1088316,
      "name": "floatBufferViews",
      "target": 34963
    },
    {
      "buffer": 0,
      "byteLength": 411864,
      "byteOffset": 1088316,
      "byteStride": 8,
      "name": "floatBufferViews",
      "target": 34962
    },
    {
      "buffer": 0,
      "byteLength": 1235592,
      "byteOffset": 1500180,
      "byteStride": 12,
      "name": "floatBufferViews",
      "target": 34962
    },
    {
      "buffer": 0,
      "byteLength": 823728,
      "byteOffset": 2735772,
      "byteStride": 16,
      "name": "floatBufferViews",
      "target": 34962
    }
  ],
  "buffers": [
    {
      "byteLength": 3559500,
      "uri": "scene.bin"
    }
  ],
  "images": [
    {
      "uri": "textures/Chrystanthemum_final_baseColor.jpeg"
    },
    {
      "uri": "textures/Chrystanthemum_final_metallicRoughness.png"
    },
    {
      "uri": "textures/Chrystanthemum_final_normal.png"
    }
  ],
  "materials": [
    {
      "doubleSided": true,
      "name": "Chrystanthemum_final",
      "normalTexture": {
        "index": 2
      },
      "occlusionTexture": {
        "index": 1
      },
      "pbrMetallicRoughness": {
        "baseColorTexture": {
          "index": 0
        },
        "metallicFactor": 0.0,
        "metallicRoughnessTexture": {
          "index": 1
        }
      }
    }
  ],
  "meshes": [
    {
      "name": "Object_0",
      "primitives": [
        {
          "attributes": {
            "NORMAL": 1,
            "POSITION": 0,
            "TANGENT": 2,
            "TEXCOORD_0": 3
          },
          "indices": 4,
          "material": 0,
          "mode": 4
        }
      ]
    }
  ],
  "nodes": [
    {
      "children": [
        1
      ],
      "matrix": [
        1.0,
        0.0,
        0.0,
        0.0,
        0.0,
        2.220446049250313e-16,
        -1.0,
        0.0,
        0.0,
        1.0,
        2.220446049250313e-16,
        0.0,
        0.0,
        0.0,
        0.0,
        1.0
      ],
      "name": "Sketchfab_model"
    },
    {
      "children": [
        2
      ],
      "name": "Chrystanthemum_final_SF.obj.cleaner.materialmerger.gles"
    },
    {
      "mesh": 0,
      "name": "Object_2"
    }
  ],
  "samplers": [
    {
      "magFilter": 9729,
      "minFilter": 9987,
      "wrapS": 10497,
      "wrapT": 10497
    }
  ],
  "scene": 0,
  "scenes": [
    {
      "name": "Sketchfab_Scene",
      "nodes": [
        0
      ]
    }
  ],
  "textures": [
    {
      "sampler": 0,
      "source": 0
    },
    {
      "sampler": 0,
      "source": 1
    },
    {
      "sampler": 0,
      "source": 2
    }
  ]
}
