{
  "accessors": [
    {
      "bufferView": 2,
      "componentType": 5126,
      "count": 21692,
      "max": [
        1.8563170433044434,
        6.283024787902832,
        8.516249656677246
      ],
      "min": [
        -6.386785984039307,
        -6.760402202606201,
        -0.9398639798164368
      ],
      "type": "VEC3"
    },
    {
      "bufferView": 2,
      "byteOffset": 260304,
      "componentType": 5126,
      "count": 21692,
      "max": [
        0.9998996257781982,
        0.9998958110809326,
        0.9999635219573975
      ],
      "min": [
        -0.9999792575836182,
        -0.9998958110809326,
        -0.9999998807907104
      ],
      "type": "VEC3"
    },
    {
      "bufferView": 1,
      "componentType": 5126,
      "count": 21692,
      "max": [
        0.9995200037956238,
        0.999521017074585
      ],
      "min": [
        0.0004799999878741801,
        0.00047900000936351717
      ],
      "type": "VEC2"
    },
    {
      "bufferView": 0,
      "componentType": 5125,
      "count": 87540,
      "type": "SCALAR"
    },
    {
      "bufferView": 2,
      "byteOffset": 520608,
      "componentType": 5126,
      "count": 183,
      "max": [
        1.5818630456924438,
        0.022502999752759933,
        0.021484000608325005
      ],
      "min": [
        1.5214799642562866,
        -0.02250399999320507,
        0.006262999959290028
      ],
      "type": "VEC3"
    },
    {
      "bufferView": 2,
      "byteOffset": 522804,
      "componentType": 5126,
      "count": 183,
      "max": [
        -0.24239446222782135,
        -0.0,
        0.9701777696609497
      ],
      "min": [
        -0.2482021301984787,
        -0.0,
        0.9687082767486572
      ],
      "type": "VEC3"
    },
    {
      "bufferView": 1,
      "byteOffset": 173536,
      "componentType": 5126,
      "count": 183,
      "max": [
        0.0,
        0.0
      ],
      "min": [
        0.0,
        0.0
      ],
      "type": "VEC2"
    },
    {
      "bufferView": 0,
      "byteOffset": 350160,
      "componentType": 5125,
      "count": 282,
      "type": "SCALAR"
    },
    {
      "bufferView": 2,
      "byteOffset": 525000,
      "componentType": 5126,
      "count": 15960,
      "max": [
        4.068109035491943,
        2.7958850860595703,
        0.5038930177688599
      ],
      "min": [
        -3.0334529876708984,
        -2.796133041381836,
        -2.2117080688476563
      ],
      "type": "VEC3"
    },
    {
      "bufferView": 2,
      "byteOffset": 716520,
      "componentType": 5126,
      "count": 15960,
      "max": [
        0.9999973773956299,
        1.0,
        0.99998939037323
      ],
      "min": [
        -0.9998844861984253,
        -1.0,
        -1.0
      ],
      "type": "VEC3"
    },
    {
      "bufferView": 1,
      "byteOffset": 175000,
      "componentType": 5126,
      "count": 15960,
      "max": [
        0.0,
        0.0
      ],
      "min": [
        0.0,
        0.0
      ],
      "type": "VEC2"
    },
    {
      "bufferView": 0,
      "byteOffset": 351288,
      "componentType": 5125,
      "count": 88608,
      "type": "SCALAR"
    }
  ],
  "asset": {
    "extras": {
      "author": "dudecon (https://sketchfab.com/dudecon)",
      "license": "CC-BY-4.0 (http://creativecommons.org/licenses/by/4.0/)",
      "source": "https://sketchfab.com/3d-models/monarch-butterfly-ed0a10f2aa4b41bb9b7a1bcb82cb369b",
      "title": "Monarch Butterfly"
    },
    "generator": "Sketchfab-12.68.0",
    "version": "2.0"
  },
  "bufferViews": [
    {
      "buffer": 0,
      "byteLength": 705720,
      "name": "floatBufferViews",
      "target": 34963
    },
    {
      "buffer": 0,
      "byteLength": 302680,
      "byteOffset": 705720,
      "byteStride": 8,
      "name": "floatBufferViews",
      "target": 34962
    },
    {
      "buffer": 0,
      "byteLength": 908040,
      "byteOffset": 1008400,
      "byteStride": 12,
      "name": "floatBufferViews",
      "target": 34962
    }
  ],
  "buffers": [
    {
      "byteLength": 1916440,
      "uri": "scene.bin"
    }
  ],
  "images": [
    {
      "uri": "textures/Material_baseColor.png"
    }
  ],
  "materials": [
    {
      "doubleSided": true,
      "name": "Material",
      "pbrMetallicRoughness": {
        "baseColorTexture": {
          "index": 0
        },
        "metallicFactor": 0.0,
        "roughnessFactor": 0.6213192151712481
      }
    },
    {
      "doubleSided": true,
      "name": "Material_NONE",
      "pbrMetallicRoughness": {
        "baseColorTexture": {
          "index": 0
        },
        "metallicFactor": 0.0,
        "roughnessFactor": 0.9832181767159597
      }
    }
  ],
  "meshes": [
    {
      "name": "Object_0",
      "primitives": [
        {
          "attributes": {
            "NORMAL": 1,
            "POSITION": 0,
            "TEXCOORD_0": 2
          },
          "indices": 3,
          "material": 0,
          "mode": 4
        }
      ]
    },
    {
      "name": "Object_1",
      "primitives": [
        {
          "attributes": {
            "NORMAL": 5,
            "POSITION": 4,
            "TEXCOORD_0": 6
          },
          "indices": 7,
          "material": 1,
          "mode": 4
        }
      ]
    },
    {
      "name": "Object_2",
      "primitives": [
        {
          "attributes": {
            "NORMAL": 9,
            "POSITION": 8,
            "TEXCOORD_0": 10
          },
          "indices": 11,
          "material": 1,
          "mode": 4
        }
      ]
    }
  ],
  "nodes": [
    {
      "children": [
        1
      ],
      "matrix": [
        0.010605312883853912,
        0.0,
        0.0,
        0.0,
        0.0,
        2.3548525094016864e-18,
        -0.010605312883853912,
        0.0,
        0.0,
        0.010605312883853912,
        2.3548525094016864e-18,
        0.0,
        0.0,
        0.0,
        0.0,
        1.0
      ],
      "name": "Sketchfab_model"
    },
    {
      "children": [
        2,
        3,
        4
      ],
      "name": "Butterfly.obj.cleaner.materialmerger.gles"
    },
    {
      "mesh": 0,
      "name": "Object_2"
    },
    {
      "mesh": 1,
      "name": "Object_3"
    },
    {
      "mesh": 2,
      "name": "Object_4"
    }
  ],
  "samplers": [
    {
      "magFilter": 9729,
      "minFilter": 9987,
      "wrapS": 10497,
      "wrapT": 10497
    }
  ],
  "scene": 0,
  "scenes": [
    {
      "name": "Sketchfab_Scene",
      "nodes": [
        0
      ]
    }
  ],
  "textures": [
    {
      "sampler": 0,
      "source": 0
    }
  ]
}
