{
  "accessors": [
    {
      "bufferView": 2,
      "componentType": 5126,
      "count": 1083,
      "max": [
        0.4081273674964905,
        -0.026009345427155495,
        0.41522058844566345
      ],
      "min": [
        -0.3904917240142822,
        -0.28356286883354187,
        -0.38091495633125305
      ],
      "type": "VEC3"
    },
    {
      "bufferView": 2,
      "byteOffset": 12996,
      "componentType": 5126,
      "count": 1083,
      "max": [
        0.9996964931488037,
        1.0,
        0.9996964931488037
      ],
      "min": [
        -0.9996965527534485,
        -3.6280209769756766e-07,
        -0.9996965527534485
      ],
      "type": "VEC3"
    },
    {
      "bufferView": 1,
      "componentType": 5126,
      "count": 1083,
      "max": [
        0.8712309002876282,
        0.9997639060020447
      ],
      "min": [
        0.00023615368991158903,
        0.00023616073303855956
      ],
      "type": "VEC2"
    },
    {
      "bufferView": 0,
      "componentType": 5125,
      "count": 5352,
      "type": "SCALAR"
    }
  ],
  "asset": {
    "extras": {
      "author": "Miaru3d (https://sketchfab.com/miaru3d)",
      "license": "SKETCHFAB Standard (https://sketchfab.com/licenses)",
      "source": "https://sketchfab.com/3d-models/lowpoly-hibiscus-flower-88367734e68545d8b73703c1686c6b3a",
      "title": "Lowpoly Hibiscus flower"
    },
    "generator": "Sketchfab-15.56.0",
    "version": "2.0"
  },
  "bufferViews": [
    {
      "buffer": 0,
      "byteLength": 21408,
      "name": "floatBufferViews",
      "target": 34963
    },
    {
      "buffer": 0,
      "byteLength": 8664,
      "byteOffset": 21408,
      "byteStride": 8,
      "name": "floatBufferViews",
      "target": 34962
    },
    {
      "buffer": 0,
      "byteLength": 25992,
      "byteOffset": 30072,
      "byteStride": 12,
      "name": "floatBufferViews",
      "target": 34962
    }
  ],
  "buffers": [
    {
      "byteLength": 56064,
      "uri": "scene.bin"
    }
  ],
  "extensionsUsed": [
    "KHR_materials_unlit"
  ],
  "images": [
    {
      "uri": "textures/Hibi_baseColor.png"
    }
  ],
  "materials": [
    {
      "doubleSided": true,
      "extensions": {
        "KHR_materials_unlit": {}
      },
      "name": "Hibi",
      "pbrMetallicRoughness": {
        "baseColorTexture": {
          "index": 0
        },
        "metallicFactor": 0.0
      }
    }
  ],
  "meshes": [
    {
      "name": "__Plane.002_Hibi_0",
      "primitives": [
        {
          "attributes": {
            "NORMAL": 1,
            "POSITION": 0,
            "TEXCOORD_0": 2
          },
          "indices": 3,
          "material": 0,
          "mode": 4
        }
      ]
    }
  ],
  "nodes": [
    {
      "children": [
        1
      ],
      "matrix": [
        1.9661272764205933,
        0.0,
        0.0,
        0.0,
        0.0,
        4.3656795432513845e-16,
        -1.9661272764205933,
        0.0,
        0.0,
        1.9661272764205933,
        4.3656795432513845e-16,
        0.0,
        0.0,
        0.0,
        0.0,
        1.0
      ],
      "name": "Sketchfab_model"
    },
    {
      "children": [
        2
      ],
      "matrix": [
        1.0,
        0.0,
        0.0,
        0.0,
        0.0,
        0.0,
        1.0,
        0.0,
        0.0,
        -1.0,
        0.0,
        0.0,
        0.0,
        0.0,
        0.0,
        1.0
      ],
      "name": "3de7b49269b54ab5bb21d5aa3fb8c19b.fbx"
    },
    {
      "children": [
        3
      ],
      "name": "RootNode"
    },
    {
      "children": [
        4
      ],
      "matrix": [
        -0.7243128212599301,
        -0.6894714910411255,
        -8.940694640191538e-08,
        0.0,
        -1.1885876716188903e-07,
        2.545397128628224e-07,
        -0.9999999999999605,
        0.0,
        0.689471491041121,
        -0.7243128212598908,
        -2.66316108943343e-07,
        0.0,
        0.0,
        0.0,
        0.0,
        1.0
      ],
      "name": "__Plane.002"
    },
    {
      "mesh": 0,
      "name": "__Plane.002_Hibi_0"
    }
  ],
  "samplers": [
    {
      "magFilter": 9729,
      "minFilter": 9987,
      "wrapS": 10497,
      "wrapT": 10497
    }
  ],
  "scene": 0,
  "scenes": [
    {
      "name": "Sketchfab_Scene",
      "nodes": [
        0
      ]
    }
  ],
  "textures": [
    {
      "sampler": 0,
      "source": 0
    }
  ]
}
