{
  "accessors": [
    {
      "bufferView": 2,
      "componentType": 5126,
      "count": 195,
      "max": [
        5.372139930725098,
        -2.787790060043335,
        7.530570030212402
      ],
      "min": [
        -1.8367700576782227,
        -8.688170433044434,
        0.8224599957466125
      ],
      "type": "VEC3"
    },
    {
      "bufferView": 2,
      "byteOffset": 2340,
      "componentType": 5126,
      "count": 195,
      "max": [
        0.997680127620697,
        0.41151362657546997,
        0.9982561469078064
      ],
      "min": [
        -0.6919286251068115,
        -0.9900257587432861,
        -0.6336058378219604
      ],
      "type": "VEC3"
    },
    {
      "bufferView": 1,
      "componentType": 5126,
      "count": 195,
      "max": [
        1.0694199800491333,
        1.043910026550293
      ],
      "min": [
        -0.1505499929189682,
        0.004619999788701534
      ],
      "type": "VEC2"
    },
    {
      "bufferView": 0,
      "componentType": 5125,
      "count": 624,
      "type": "SCALAR"
    },
    {
      "bufferView": 2,
      "byteOffset": 4680,
      "componentType": 5126,
      "count": 1780,
      "max": [
        2.325309991836548,
        0.40066999197006226,
        4.794740200042725
      ],
      "min": [
        -0.6325500011444092,
        -6.692259788513184,
        -0.5651500225067139
      ],
      "type": "VEC3"
    },
    {
      "bufferView": 2,
      "byteOffset": 26040,
      "componentType": 5126,
      "count": 1780,
      "max": [
        0.9994285702705383,
        0.9947750568389893,
        0.9765276908874512
      ],
      "min": [
        -0.9873271584510803,
        -0.9875922203063965,
        -0.9391937851905823
      ],
      "type": "VEC3"
    },
    {
      "bufferView": 1,
      "byteOffset": 1560,
      "componentType": 5126,
      "count": 1780,
      "max": [
        0.9455999732017517,
        3.4517500400543213
      ],
      "min": [
        -0.6715899705886841,
        -2.4517500400543213
      ],
      "type": "VEC2"
    },
    {
      "bufferView": 0,
      "byteOffset": 2496,
      "componentType": 5125,
      "count": 9972,
      "type": "SCALAR"
    }
  ],
  "asset": {
    "extras": {
      "author": "Surya (https://sketchfab.com/Swanoff)",
      "license": "CC-BY-4.0 (http://creativecommons.org/licenses/by/4.0/)",
      "source": "https://sketchfab.com/3d-models/palm-tree-b9922dd105ee4536b9ca983c26f58e66",
      "title": "Palm Tree"
    },
    "generator": "Sketchfab-12.68.0",
    "version": "2.0"
  },
  "bufferViews": [
    {
      "buffer": 0,
      "byteLength": 42384,
      "name": "floatBufferViews",
      "target": 34963
    },
    {
      "buffer": 0,
      "byteLength": 15800,
      "byteOffset": 42384,
      "byteStride": 8,
      "name": "floatBufferViews",
      "target": 34962
    },
    {
      "buffer": 0,
      "byteLength": 47400,
      "byteOffset": 58184,
      "byteStride": 12,
      "name": "floatBufferViews",
      "target": 34962
    }
  ],
  "buffers": [
    {
      "byteLength": 105584,
      "uri": "scene.bin"
    }
  ],
  "extensionsUsed": [
    "KHR_materials_unlit"
  ],
  "images": [
    {
      "uri": "textures/Material.002_baseColor.png"
    },
    {
      "uri": "textures/Material.001_baseColor.jpeg"
    }
  ],
  "materials": [
    {
      "alphaMode": "BLEND",
      "doubleSided": true,
      "extensions": {
        "KHR_materials_unlit": {}
      },
      "name": "Material.002",
      "pbrMetallicRoughness": {
        "baseColorTexture": {
          "index": 0
        },
        "metallicFactor": 0.0
      }
    },
    {
      "doubleSided": true,
      "extensions": {
        "KHR_materials_unlit": {}
      },
      "name": "Material.001",
      "pbrMetallicRoughness": {
        "baseColorTexture": {
          "index": 1
        },
        "metallicFactor": 0.0
      }
    }
  ],
  "meshes": [
    {
      "name": "Tree_0",
      "primitives": [
        {
          "attributes": {
            "NORMAL": 1,
            "POSITION": 0,
            "TEXCOORD_0": 2
          },
          "indices": 3,
          "material": 0,
          "mode": 4
        }
      ]
    },
    {
      "name": "Tree_1",
      "primitives": [
        {
          "attributes": {
            "NORMAL": 5,
            "POSITION": 4,
            "TEXCOORD_0": 6
          },
          "indices": 7,
          "material": 1,
          "mode": 4
        }
      ]
    }
  ],
  "nodes": [
    {
      "children": [
        1
      ],
      "matrix": [
        1.0,
        0.0,
        0.0,
        0.0,
        0.0,
        2.220446049250313e-16,
        -1.0,
        0.0,
        0.0,
        1.0,
        2.220446049250313e-16,
        0.0,
        0.0,
        0.0,
        0.0,
        1.0
      ],
      "name": "Sketchfab_model"
    },
    {
      "children": [
        2
      ],
      "name": "Root"
    },
    {
      "children": [
        3,
        4
      ],
      "matrix": [
        0.36890000000000006,
        0.51087,
        0.17233,
        0.0,
        -0.22686000000000003,
        0.3365000000000001,
        -0.51193,
        0.0,
        -0.48910000000000003,
        0.22924000000000005,
        0.3674200000000001,
        0.0,
        -0.0,
        -0.0,
        0.009220000000000002,
        1.0
      ],
      "name": "Tree"
    },
    {
      "mesh": 0,
      "name": "Tree_0"
    },
    {
      "mesh": 1,
      "name": "Tree_1"
    }
  ],
  "samplers": [
    {
      "magFilter": 9729,
      "minFilter": 9987,
      "wrapS": 10497,
      "wrapT": 10497
    }
  ],
  "scene": 0,
  "scenes": [
    {
      "name": "Sketchfab_Scene",
      "nodes": [
        0
      ]
    }
  ],
  "textures": [
    {
      "sampler": 0,
      "source": 0
    },
    {
      "sampler": 0,
      "source": 1
    }
  ]
}
